<svg xmlns="http://www.w3.org/2000/svg" width="56" height="56" viewBox="0 0 56 56">
  <g id="Group_14561" data-name="Group 14561" transform="translate(-180 -373)">
    <rect id="Rectangle_151615" data-name="Rectangle 151615" width="56" height="55" transform="translate(180 373)" fill="none"/>
    <g id="Group_13464" data-name="Group 13464" transform="translate(181 374)">
      <path id="Path_7378" data-name="Path 7378" d="M63.765,26.057l-7.8.227h-.3c-.076-.227-.076-.454-.151-.606a19.534,19.534,0,0,0-17.42-15.148,18.844,18.844,0,0,0-6.211.53H31.8L28.47,3.608A27.509,27.509,0,0,1,63.008,22.24a30.456,30.456,0,0,1,.757,3.817Z" transform="translate(-9.069 -2.384)" fill="#3cc64f"/>
      <path id="Path_7379" data-name="Path 7379" d="M64.833,28.4l-7.8.227a4.2,4.2,0,0,0-.454-.606,19.534,19.534,0,0,0-17.42-15.148,18.844,18.844,0,0,0-6.211.53l-.076-.151A27.486,27.486,0,0,1,64.075,24.609,30.459,30.459,0,0,1,64.833,28.4Z" transform="translate(-10.136 -4.722)" fill="#36a33b"/>
      <path id="Path_7380" data-name="Path 7380" d="M50.213,64.807A26.964,26.964,0,0,1,40.67,66.9l.682-8.1A19.481,19.481,0,0,0,58.772,41.9h0v-.076H59l7.877-.227h0A27.35,27.35,0,0,1,50.213,64.807Z" transform="translate(-12.028 -11.897)" fill="#3487ea"/>
      <path id="Path_7381" data-name="Path 7381" d="M49.053,62.1a26.259,26.259,0,0,1-8.483,4.893l.682-8.1A19.488,19.488,0,0,0,58.748,42a27.607,27.607,0,0,1-9.695,20.1Z" transform="translate(-12.004 -11.994)" fill="#3487ea"/>
      <path id="Path_7382" data-name="Path 7382" d="M49.053,62.1a26.259,26.259,0,0,1-8.483,4.893l.682-8.1A19.488,19.488,0,0,0,58.748,42a27.607,27.607,0,0,1-9.695,20.1Z" transform="translate(-12.004 -11.994)" fill="#3278b2"/>
      <path id="Path_7383" data-name="Path 7383" d="M26.043,50.033l-.682,8.1a27.479,27.479,0,0,1-8.634-50.9l2.424,5.453.833,1.969a19.418,19.418,0,0,0,6.059,35.371Z" transform="translate(-2.854 -3.562)" fill="#3487ea"/>
      <path id="Path_7384" data-name="Path 7384" d="M28.958,59.761l-.682,8.1A27.9,27.9,0,0,1,14.87,47.34,19.481,19.481,0,0,0,28.958,59.761Z" transform="translate(-5.769 -13.29)" fill="#3278b2"/>
    </g>
  </g>
</svg>
