<svg xmlns="http://www.w3.org/2000/svg" width="56" height="55" viewBox="0 0 56 55">
  <g id="Group_14560" data-name="Group 14560" transform="translate(-50 -373)">
    <rect id="Rectangle_151614" data-name="Rectangle 151614" width="56" height="55" transform="translate(50 373)" fill="none"/>
    <g id="Group_2495" transform="translate(51 375)">
      <path id="Path_2471" d="M79.265,72.992A4.5,4.5,0,0,1,76.3,74.174h-.108L44.937,77.986c-2.978-.07-5.384-3.341-5.384-7.354V40.815c0-4.013,2.406-7.284,5.384-7.354l31.153,3.8.212.012a4.511,4.511,0,0,1,2.962,1.182l4.646.394a8.8,8.8,0,0,0-7.489-5.083l-31.169-3.8-.212-.012c-4.959,0-8.991,4.87-8.991,10.865V70.644c0,5.99,4.036,10.865,8.991,10.865h.108l31.277-3.816a8.8,8.8,0,0,0,7.489-5.083Z" transform="translate(-36.05 -29.955)" fill="#515151"/>
      <g id="Group_1614" transform="translate(8.803 7.112)">
        <path id="Path_2472" d="M30.333,55.349l34.935-2.962c3.109,0,5.631-3.167,5.631-7.076V28.073C70.9,24.164,68.377,21,65.268,21L30.333,18.035c-3.109,0-5.631,3.167-5.631,7.076V48.273C24.7,52.181,27.224,55.349,30.333,55.349ZM37.4,31.476a2.919,2.919,0,0,1,2.538-3.194l15.739,1.336a2.921,2.921,0,0,1,2.538,3.194v7.763a2.919,2.919,0,0,1-2.538,3.194L39.935,45.106A2.921,2.921,0,0,1,37.4,41.912Z" transform="translate(-24.702 -18.035)" fill="#47c431"/>
      </g>
    </g>
  </g>
</svg>
