<svg xmlns="http://www.w3.org/2000/svg" width="175.975" height="37.997" viewBox="0 0 175.975 37.997">
  <g id="Group_6862" data-name="Group 6862" transform="translate(0 924.232)">
    <g id="Group_6825" data-name="Group 6825" transform="translate(69.03 -922.164)">
      <g id="Group_6819" data-name="Group 6819" transform="translate(0 0.982)">
        <path id="Path_7743" data-name="Path 7743" d="M149.7-903.008v11.965H145.63v-26.743H151.7a18.975,18.975,0,0,1,4.137.346,6.487,6.487,0,0,1,2.512,1.152,6.333,6.333,0,0,1,1.919,2.5,8.251,8.251,0,0,1,.679,3.36,7.5,7.5,0,0,1-1.554,5.034,6.813,6.813,0,0,1-4.583,2.181l9.21,12.168H159.1l-8.9-11.965Zm.274-3.38h.787a8.749,8.749,0,0,0,4.583-.806,3.26,3.26,0,0,0,1.132-2.848,3.632,3.632,0,0,0-1.225-3.115,7.987,7.987,0,0,0-4.5-.9h-.782Z" transform="translate(-145.63 917.793)" fill="#373737"/>
      </g>
      <g id="Group_6820" data-name="Group 6820" transform="translate(19.653 2.936)">
        <path id="Path_7744" data-name="Path 7744" d="M187.09-911.2a2.361,2.361,0,0,1,.735-1.735,2.417,2.417,0,0,1,1.762-.735,2.39,2.39,0,0,1,1.762.7,2.39,2.39,0,0,1,.7,1.762,2.451,2.451,0,0,1-.711,1.782,2.353,2.353,0,0,1-1.755.721,2.407,2.407,0,0,1-1.762-.736A2.406,2.406,0,0,1,187.09-911.2Zm.532,22.327v-17.315h3.963v17.315Z" transform="translate(-187.09 913.672)" fill="#373737"/>
      </g>
      <g id="Group_6821" data-name="Group 6821" transform="translate(25.935 9.808)">
        <path id="Path_7745" data-name="Path 7745" d="M209.187-876.366a5.047,5.047,0,0,0,3.654-1.115,5.206,5.206,0,0,0,1.132-3.725l.037-2.3a6.949,6.949,0,0,1-2.475,2.228,6.95,6.95,0,0,1-3.242.735,7.159,7.159,0,0,1-5.784-2.512,10.354,10.354,0,0,1-2.11-6.877,10.033,10.033,0,0,1,2.157-6.7,7.023,7.023,0,0,1,5.637-2.551,7.015,7.015,0,0,1,3.627.887,5.18,5.18,0,0,1,2.206,2.552v-2.831h3.963v16.239a10.1,10.1,0,0,1-2.029,7.154,9.313,9.313,0,0,1-6.831,2.071Zm4.934-13.614a6.346,6.346,0,0,0-1.252-4.186,4.3,4.3,0,0,0-3.5-1.5,4.349,4.349,0,0,0-3.537,1.547,6.5,6.5,0,0,0-1.289,4.284,6.492,6.492,0,0,0,1.242,4.257,4.3,4.3,0,0,0,3.507,1.5,4.3,4.3,0,0,0,3.48-1.625,6.5,6.5,0,0,0,1.345-4.276Z" transform="translate(-200.381 899.189)" fill="#373737"/>
      </g>
      <g id="Group_6822" data-name="Group 6822" transform="translate(45.63 0.988)">
        <path id="Path_7746" data-name="Path 7746" d="M241.89-891.047V-917.79h3.725v12.254a7.442,7.442,0,0,1,2.8-2.612,8.476,8.476,0,0,1,3.921-.821,8.04,8.04,0,0,1,3.3.613,4.806,4.806,0,0,1,2.127,1.816,4.932,4.932,0,0,1,.659,1.664,18.553,18.553,0,0,1,.2,3.323v10.5h-4v-8.9a8.374,8.374,0,0,0-.828-4.542,3.432,3.432,0,0,0-2.941-1.123,5.746,5.746,0,0,0-2.475.512,4.112,4.112,0,0,0-1.716,1.441,3.918,3.918,0,0,0-.61,1.6,19.949,19.949,0,0,0-.176,3.115v7.892H241.89Z" transform="translate(-241.89 917.79)" fill="#373737"/>
      </g>
      <g id="Group_6823" data-name="Group 6823" transform="translate(63.655 3.851)">
        <path id="Path_7747" data-name="Path 7747" d="M282.954-887.866v-13.845H279.92v-3.471h3.034v-6.561h3.963v6.561h3.034v3.471h-3.034v13.845Z" transform="translate(-279.92 911.742)" fill="#373737"/>
      </g>
      <g id="Group_6824" data-name="Group 6824" transform="translate(76.622 0)">
        <path id="Path_7748" data-name="Path 7748" d="M331.895-896.083l5.7,6.156h-5.206l-3.5-3.792a16.047,16.047,0,0,1-3.644,1.446,15.432,15.432,0,0,1-3.867.473,13.928,13.928,0,0,1-5.353-1.081,14.106,14.106,0,0,1-4.578-3,13.607,13.607,0,0,1-3.105-4.527,13.819,13.819,0,0,1-1.071-5.424,13.824,13.824,0,0,1,1.071-5.424,13.727,13.727,0,0,1,3.105-4.527,14.044,14.044,0,0,1,4.627-3.034,14.677,14.677,0,0,1,5.541-1.052,14.583,14.583,0,0,1,5.517,1.052,14.028,14.028,0,0,1,4.617,3.034,13.947,13.947,0,0,1,3.115,4.546,13.685,13.685,0,0,1,1.081,5.392,13.724,13.724,0,0,1-1.034,5.284,13.427,13.427,0,0,1-3.017,4.48Zm-5.441-5.953,2.583,2.77a10.212,10.212,0,0,0,1.8-3.085,10.314,10.314,0,0,0,.569-3.475,10.311,10.311,0,0,0-.735-3.863,9.626,9.626,0,0,0-2.12-3.223,10.008,10.008,0,0,0-3.2-2.206,9.432,9.432,0,0,0-3.74-.767,9.435,9.435,0,0,0-3.755.767,9.813,9.813,0,0,0-3.186,2.206,9.754,9.754,0,0,0-2.122,3.223,10.224,10.224,0,0,0-.735,3.862,9.707,9.707,0,0,0,2.848,7.107,9.526,9.526,0,0,0,7.063,2.887,9.238,9.238,0,0,0,2.171-.245,8.985,8.985,0,0,0,2.061-.777l-4.8-5.166h5.311Z" transform="translate(-307.271 919.871)" fill="gray"/>
      </g>
    </g>
    <g id="Group_6827" data-name="Group 6827" transform="translate(0 -924.232)">
      <path id="Path_7749" data-name="Path 7749" d="M12.727-906.289a20.4,20.4,0,0,1,9.718-17.374,17.863,17.863,0,0,0-4.5-.569,17.933,17.933,0,0,0-12.69,5.252A17.933,17.933,0,0,0,0-906.289a17.936,17.936,0,0,0,17.94,17.938,18.061,18.061,0,0,0,4.5-.569A20.411,20.411,0,0,1,12.727-906.289Z" transform="translate(0 924.232)" fill="#47c431"/>
      <circle id="Ellipse_665" data-name="Ellipse 665" cx="17.938" cy="17.938" r="17.938" transform="translate(15.183 0.005)" fill="#3487ea"/>
      <g id="Group_6826" data-name="Group 6826" transform="translate(24.714 9.164)">
        <circle id="Ellipse_398_2_" cx="3.953" cy="3.953" r="3.953" transform="translate(4.451 0)" fill="#fff"/>
        <path id="Path_4365_2_" d="M52.14-877.6l16.808.086a8.071,8.071,0,0,0-8.509-7.272,7.865,7.865,0,0,0-8.3,7.186Z" transform="translate(-52.14 894.318)" fill="#fff"/>
      </g>
    </g>
  </g>
</svg>
