<svg xmlns="http://www.w3.org/2000/svg" width="56" height="55" viewBox="0 0 56 55">
  <g id="Group_14554" data-name="Group 14554" transform="translate(-176 -47)">
    <rect id="Rectangle_151608" data-name="Rectangle 151608" width="56" height="55" transform="translate(176 47)" fill="none"/>
    <g id="Layer_2_1_" transform="translate(180 47)">
      <g id="Layer_1-2" transform="translate(0 0)">
        <path id="Path_188" d="M51.755,7.664a8.912,8.912,0,0,0-5.2-.375C39.755,8.711,14.1,14.053,11.783,14.381a7.1,7.1,0,0,0-3.609,2.29,6.644,6.644,0,0,0-1.92,4.668c0,6.893.065,26.5.375,27.755.425,1.531,4.964,3.6,4.964,3.6l.194,9.368c11.825-9.535,33.185-2.859,37.187-2.1a4.5,4.5,0,0,0,3.266-.551,5.288,5.288,0,0,0,2.442-4.612c-.073-7.518-.3-37.146.2-42.133A4.561,4.561,0,0,0,51.755,7.664ZM25.065,28.886a5.515,5.515,0,0,1,5.7-5.011,5.08,5.08,0,0,1,4.858,5.284v.24a5.521,5.521,0,0,1-5.709,5.034,5.067,5.067,0,0,1-4.853-5.275h0C25.059,29.068,25.059,28.977,25.065,28.886ZM42.045,41.854a19.3,19.3,0,0,1-13.089,4.363A18.032,18.032,0,0,1,17.8,41.734a1.8,1.8,0,0,1-.129-2.489,29.565,29.565,0,0,1,3.562-3.451,1.9,1.9,0,0,1,2.4-.073A10.111,10.111,0,0,0,29.619,38a10.793,10.793,0,0,0,6.964-2.123,1.758,1.758,0,0,1,2.243.1,49.04,49.04,0,0,1,3.451,3.489,1.676,1.676,0,0,1-.223,2.354h0Z" transform="translate(-6.253 -7.065)" fill="#38c800"/>
      </g>
    </g>
  </g>
</svg>
