<svg xmlns="http://www.w3.org/2000/svg" width="56" height="55" viewBox="0 0 56 55">
  <g id="Group_14555" data-name="Group 14555" transform="translate(-48 -47)">
    <rect id="Rectangle_151609" data-name="Rectangle 151609" width="56" height="55" transform="translate(48 47)" fill="none"/>
    <g id="Group_13645" data-name="Group 13645" transform="translate(-1.523 -0.098)">
      <circle id="Ellipse_110" cx="2.296" cy="2.296" r="2.296" transform="translate(87.42 72.605)" fill="#47c431"/>
      <path id="Path_2474" d="M63.626,2.749H40.232a15.8,15.8,0,0,0-15.8,15.8h0v15.8h39.2a15.8,15.8,0,0,0,0-31.605ZM40.513,22.513a3.962,3.962,0,1,1,3.962-3.962h0a3.962,3.962,0,0,1-3.962,3.962Zm12.054,0a3.962,3.962,0,1,1,3.962-3.962h0a3.962,3.962,0,0,1-3.962,3.962Zm12.054,0a3.962,3.962,0,1,1,3.962-3.962h0a3.962,3.962,0,0,1-3.962,3.962Z" transform="translate(25.096 56.35)" fill="#47c431"/>
    </g>
  </g>
</svg>
